<svg width="282" height="282" viewBox="0 0 282 282" fill="none" xmlns="http://www.w3.org/2000/svg">
<rect width="282" height="282" fill="black"/>
<path opacity="0.5" d="M124.737 117H158.263C160.315 117 162.283 117.815 163.734 119.266C165.185 120.717 166 122.685 166 124.737V158.263C166 160.315 165.185 162.283 163.734 163.734C162.283 165.185 160.315 166 158.263 166H124.737C122.685 166 120.717 165.185 119.266 163.734C117.815 162.283 117 160.315 117 158.263V124.737C117 122.685 117.815 120.717 119.266 119.266C120.717 117.815 122.685 117 124.737 117ZM124.737 119.579C123.369 119.579 122.057 120.122 121.09 121.09C120.122 122.057 119.579 123.369 119.579 124.737V154.627L130.643 143.537L137.09 149.985L149.985 137.09L163.421 150.526V124.737C163.421 123.369 162.878 122.057 161.91 121.09C160.943 120.122 159.631 119.579 158.263 119.579H124.737ZM137.09 153.647L130.643 147.199L119.579 158.263C119.579 159.631 120.122 160.943 121.09 161.91C122.057 162.878 123.369 163.421 124.737 163.421H158.263C159.631 163.421 160.943 162.878 161.91 161.91C162.878 160.943 163.421 159.631 163.421 158.263V154.163L149.985 140.752L137.09 153.647ZM131.184 124.737C132.894 124.737 134.534 125.416 135.743 126.625C136.952 127.834 137.632 129.474 137.632 131.184C137.632 132.894 136.952 134.534 135.743 135.743C134.534 136.952 132.894 137.632 131.184 137.632C129.474 137.632 127.834 136.952 126.625 135.743C125.416 134.534 124.737 132.894 124.737 131.184C124.737 129.474 125.416 127.834 126.625 126.625C127.834 125.416 129.474 124.737 131.184 124.737ZM131.184 127.316C130.158 127.316 129.174 127.723 128.449 128.449C127.723 129.174 127.316 130.158 127.316 131.184C127.316 132.21 127.723 133.194 128.449 133.92C129.174 134.645 130.158 135.053 131.184 135.053C132.21 135.053 133.194 134.645 133.92 133.92C134.645 133.194 135.053 132.21 135.053 131.184C135.053 130.158 134.645 129.174 133.92 128.449C133.194 127.723 132.21 127.316 131.184 127.316Z" fill="white"/>
<path opacity="0.5" d="M63.0135 231.364V243H61.6044V231.364H63.0135ZM65.657 243V234.273H66.9524V235.636H67.0661C67.2479 235.17 67.5414 234.809 67.9467 234.551C68.352 234.29 68.8388 234.159 69.407 234.159C69.9827 234.159 70.4619 234.29 70.8445 234.551C71.2308 234.809 71.532 235.17 71.7479 235.636H71.8388C72.0623 235.186 72.3975 234.828 72.8445 234.562C73.2914 234.294 73.8274 234.159 74.4524 234.159C75.2327 234.159 75.871 234.403 76.3672 234.892C76.8634 235.377 77.1115 236.133 77.1115 237.159V243H75.7706V237.159C75.7706 236.515 75.5945 236.055 75.2422 235.778C74.8899 235.502 74.4751 235.364 73.9979 235.364C73.3842 235.364 72.9089 235.549 72.5717 235.92C72.2346 236.288 72.0661 236.754 72.0661 237.318V243H70.7024V237.023C70.7024 236.527 70.5414 236.127 70.2195 235.824C69.8975 235.517 69.4827 235.364 68.9751 235.364C68.6267 235.364 68.3009 235.456 67.9979 235.642C67.6986 235.828 67.4562 236.085 67.2706 236.415C67.0888 236.741 66.9979 237.117 66.9979 237.545V243H65.657ZM82.1314 243.205C81.5784 243.205 81.0765 243.1 80.6257 242.892C80.175 242.68 79.817 242.375 79.5518 241.977C79.2867 241.576 79.1541 241.091 79.1541 240.523C79.1541 240.023 79.2526 239.617 79.4496 239.307C79.6465 238.992 79.9098 238.746 80.2393 238.568C80.5689 238.39 80.9325 238.258 81.3303 238.17C81.7318 238.08 82.1352 238.008 82.5405 237.955C83.0708 237.886 83.5007 237.835 83.8303 237.801C84.1636 237.763 84.406 237.701 84.5575 237.614C84.7128 237.527 84.7905 237.375 84.7905 237.159V237.114C84.7905 236.553 84.6371 236.117 84.3303 235.807C84.0272 235.496 83.567 235.341 82.9496 235.341C82.3094 235.341 81.8075 235.481 81.4439 235.761C81.0803 236.042 80.8246 236.341 80.6768 236.659L79.4041 236.205C79.6314 235.674 79.9344 235.261 80.3132 234.966C80.6958 234.667 81.1125 234.458 81.5632 234.341C82.0178 234.22 82.4647 234.159 82.9041 234.159C83.1844 234.159 83.5064 234.193 83.87 234.261C84.2375 234.326 84.5916 234.46 84.9325 234.665C85.2772 234.869 85.5632 235.178 85.7905 235.591C86.0178 236.004 86.1314 236.557 86.1314 237.25V243H84.7905V241.818H84.7223C84.6314 242.008 84.4799 242.21 84.2678 242.426C84.0556 242.642 83.7734 242.826 83.4212 242.977C83.0689 243.129 82.639 243.205 82.1314 243.205ZM82.3359 242C82.8662 242 83.3132 241.896 83.6768 241.688C84.0443 241.479 84.3208 241.21 84.5064 240.881C84.6958 240.551 84.7905 240.205 84.7905 239.841V238.614C84.7337 238.682 84.6087 238.744 84.4155 238.801C84.2261 238.854 84.0064 238.902 83.7564 238.943C83.5102 238.981 83.2696 239.015 83.0348 239.045C82.8037 239.072 82.6162 239.095 82.4723 239.114C82.1238 239.159 81.7981 239.233 81.495 239.335C81.1958 239.434 80.9534 239.583 80.7678 239.784C80.5859 239.981 80.495 240.25 80.495 240.591C80.495 241.057 80.6674 241.409 81.0121 241.648C81.3606 241.883 81.8018 242 82.3359 242ZM92.1016 246.455C91.4538 246.455 90.897 246.371 90.4311 246.205C89.9652 246.042 89.5769 245.826 89.2663 245.557C88.9595 245.292 88.7152 245.008 88.5334 244.705L89.6016 243.955C89.7228 244.114 89.8762 244.295 90.0618 244.5C90.2474 244.708 90.5012 244.888 90.8232 245.04C91.1489 245.195 91.575 245.273 92.1016 245.273C92.8061 245.273 93.3875 245.102 93.8459 244.761C94.3042 244.42 94.5334 243.886 94.5334 243.159V241.386H94.4197C94.3213 241.545 94.1811 241.742 93.9993 241.977C93.8213 242.208 93.5637 242.415 93.2266 242.597C92.8932 242.775 92.4425 242.864 91.8743 242.864C91.1697 242.864 90.5372 242.697 89.9766 242.364C89.4197 242.03 88.9785 241.545 88.6527 240.909C88.3307 240.273 88.1697 239.5 88.1697 238.591C88.1697 237.697 88.3269 236.919 88.6413 236.256C88.9557 235.589 89.3932 235.074 89.9538 234.71C90.5144 234.343 91.1622 234.159 91.897 234.159C92.4652 234.159 92.916 234.254 93.2493 234.443C93.5864 234.629 93.844 234.841 94.022 235.08C94.2038 235.314 94.344 235.508 94.4425 235.659H94.5788V234.273H95.8743V243.25C95.8743 244 95.7038 244.61 95.3629 245.08C95.0258 245.553 94.5713 245.9 93.9993 246.119C93.4311 246.343 92.7985 246.455 92.1016 246.455ZM92.0561 241.659C92.594 241.659 93.0485 241.536 93.4197 241.29C93.791 241.044 94.0732 240.689 94.2663 240.227C94.4595 239.765 94.5561 239.212 94.5561 238.568C94.5561 237.939 94.4614 237.384 94.272 236.903C94.0826 236.422 93.8023 236.045 93.4311 235.773C93.0599 235.5 92.6016 235.364 92.0561 235.364C91.4879 235.364 91.0144 235.508 90.6357 235.795C90.2607 236.083 89.9785 236.47 89.7891 236.955C89.6035 237.439 89.5107 237.977 89.5107 238.568C89.5107 239.174 89.6054 239.71 89.7947 240.176C89.9879 240.638 90.272 241.002 90.647 241.267C91.0258 241.528 91.4955 241.659 92.0561 241.659ZM101.988 243.182C101.147 243.182 100.422 242.996 99.8118 242.625C99.2057 242.25 98.7379 241.727 98.4084 241.057C98.0826 240.383 97.9197 239.598 97.9197 238.705C97.9197 237.811 98.0826 237.023 98.4084 236.341C98.7379 235.655 99.1963 235.121 99.7834 234.739C100.374 234.352 101.064 234.159 101.852 234.159C102.306 234.159 102.755 234.235 103.198 234.386C103.641 234.538 104.045 234.784 104.408 235.125C104.772 235.462 105.062 235.909 105.278 236.466C105.494 237.023 105.602 237.708 105.602 238.523V239.091H98.8743V237.932H104.238C104.238 237.439 104.139 237 103.942 236.614C103.749 236.227 103.473 235.922 103.113 235.699C102.757 235.475 102.336 235.364 101.852 235.364C101.317 235.364 100.855 235.496 100.465 235.761C100.079 236.023 99.7815 236.364 99.5732 236.784C99.3648 237.205 99.2607 237.655 99.2607 238.136V238.909C99.2607 239.568 99.3743 240.127 99.6016 240.585C99.8326 241.04 100.153 241.386 100.562 241.625C100.971 241.86 101.446 241.977 101.988 241.977C102.34 241.977 102.658 241.928 102.942 241.83C103.23 241.727 103.478 241.576 103.687 241.375C103.895 241.17 104.056 240.917 104.17 240.614L105.465 240.977C105.329 241.417 105.1 241.803 104.778 242.136C104.456 242.466 104.058 242.723 103.585 242.909C103.111 243.091 102.579 243.182 101.988 243.182ZM112.141 243V234.273H113.482V243H112.141ZM112.823 232.818C112.562 232.818 112.336 232.729 112.147 232.551C111.961 232.373 111.869 232.159 111.869 231.909C111.869 231.659 111.961 231.445 112.147 231.267C112.336 231.089 112.562 231 112.823 231C113.085 231 113.308 231.089 113.494 231.267C113.683 231.445 113.778 231.659 113.778 231.909C113.778 232.159 113.683 232.373 113.494 232.551C113.308 232.729 113.085 232.818 112.823 232.818ZM122.12 236.227L120.915 236.568C120.84 236.367 120.728 236.172 120.58 235.983C120.436 235.79 120.239 235.631 119.989 235.506C119.739 235.381 119.419 235.318 119.029 235.318C118.495 235.318 118.05 235.441 117.694 235.688C117.342 235.93 117.165 236.239 117.165 236.614C117.165 236.947 117.287 237.21 117.529 237.403C117.772 237.597 118.15 237.758 118.665 237.886L119.961 238.205C120.741 238.394 121.323 238.684 121.705 239.074C122.088 239.46 122.279 239.958 122.279 240.568C122.279 241.068 122.135 241.515 121.847 241.909C121.563 242.303 121.165 242.614 120.654 242.841C120.143 243.068 119.548 243.182 118.87 243.182C117.98 243.182 117.243 242.989 116.66 242.602C116.076 242.216 115.707 241.652 115.552 240.909L116.825 240.591C116.946 241.061 117.175 241.413 117.512 241.648C117.853 241.883 118.298 242 118.847 242C119.472 242 119.969 241.867 120.336 241.602C120.707 241.333 120.893 241.011 120.893 240.636C120.893 240.333 120.787 240.08 120.575 239.875C120.362 239.667 120.037 239.511 119.597 239.409L118.143 239.068C117.344 238.879 116.756 238.585 116.381 238.188C116.01 237.786 115.825 237.284 115.825 236.682C115.825 236.189 115.963 235.754 116.239 235.375C116.52 234.996 116.9 234.699 117.381 234.483C117.866 234.267 118.415 234.159 119.029 234.159C119.893 234.159 120.571 234.348 121.063 234.727C121.559 235.106 121.912 235.606 122.12 236.227ZM130.138 237.75V243H128.798V234.273H130.093V235.636H130.207C130.411 235.193 130.722 234.837 131.138 234.568C131.555 234.295 132.093 234.159 132.752 234.159C133.343 234.159 133.86 234.28 134.303 234.523C134.746 234.761 135.091 235.125 135.337 235.614C135.584 236.098 135.707 236.712 135.707 237.455V243H134.366V237.545C134.366 236.86 134.188 236.326 133.832 235.943C133.476 235.557 132.987 235.364 132.366 235.364C131.938 235.364 131.555 235.456 131.218 235.642C130.885 235.828 130.621 236.098 130.428 236.455C130.235 236.811 130.138 237.242 130.138 237.75ZM141.702 243.182C140.915 243.182 140.223 242.994 139.629 242.619C139.038 242.244 138.576 241.72 138.242 241.045C137.913 240.371 137.748 239.583 137.748 238.682C137.748 237.773 137.913 236.979 138.242 236.301C138.576 235.623 139.038 235.097 139.629 234.722C140.223 234.347 140.915 234.159 141.702 234.159C142.49 234.159 143.18 234.347 143.771 234.722C144.365 235.097 144.827 235.623 145.157 236.301C145.49 236.979 145.657 237.773 145.657 238.682C145.657 239.583 145.49 240.371 145.157 241.045C144.827 241.72 144.365 242.244 143.771 242.619C143.18 242.994 142.49 243.182 141.702 243.182ZM141.702 241.977C142.301 241.977 142.793 241.824 143.18 241.517C143.566 241.21 143.852 240.807 144.038 240.307C144.223 239.807 144.316 239.265 144.316 238.682C144.316 238.098 144.223 237.555 144.038 237.051C143.852 236.547 143.566 236.14 143.18 235.83C142.793 235.519 142.301 235.364 141.702 235.364C141.104 235.364 140.612 235.519 140.225 235.83C139.839 236.14 139.553 236.547 139.367 237.051C139.182 237.555 139.089 238.098 139.089 238.682C139.089 239.265 139.182 239.807 139.367 240.307C139.553 240.807 139.839 241.21 140.225 241.517C140.612 241.824 141.104 241.977 141.702 241.977ZM151.499 234.273V235.409H146.977V234.273H151.499ZM148.295 232.182H149.636V240.5C149.636 240.879 149.691 241.163 149.8 241.352C149.914 241.538 150.058 241.663 150.232 241.727C150.41 241.788 150.598 241.818 150.795 241.818C150.942 241.818 151.064 241.811 151.158 241.795C151.253 241.777 151.329 241.761 151.386 241.75L151.658 242.955C151.567 242.989 151.441 243.023 151.278 243.057C151.115 243.095 150.908 243.114 150.658 243.114C150.28 243.114 149.908 243.032 149.545 242.869C149.185 242.706 148.886 242.458 148.647 242.125C148.412 241.792 148.295 241.371 148.295 240.864V232.182ZM160.585 243.205C160.031 243.205 159.53 243.1 159.079 242.892C158.628 242.68 158.27 242.375 158.005 241.977C157.74 241.576 157.607 241.091 157.607 240.523C157.607 240.023 157.706 239.617 157.903 239.307C158.1 238.992 158.363 238.746 158.692 238.568C159.022 238.39 159.386 238.258 159.783 238.17C160.185 238.08 160.588 238.008 160.994 237.955C161.524 237.886 161.954 237.835 162.283 237.801C162.617 237.763 162.859 237.701 163.011 237.614C163.166 237.527 163.244 237.375 163.244 237.159V237.114C163.244 236.553 163.09 236.117 162.783 235.807C162.48 235.496 162.02 235.341 161.403 235.341C160.763 235.341 160.261 235.481 159.897 235.761C159.533 236.042 159.278 236.341 159.13 236.659L157.857 236.205C158.085 235.674 158.388 235.261 158.766 234.966C159.149 234.667 159.566 234.458 160.016 234.341C160.471 234.22 160.918 234.159 161.357 234.159C161.638 234.159 161.96 234.193 162.323 234.261C162.691 234.326 163.045 234.46 163.386 234.665C163.73 234.869 164.016 235.178 164.244 235.591C164.471 236.004 164.585 236.557 164.585 237.25V243H163.244V241.818H163.175C163.085 242.008 162.933 242.21 162.721 242.426C162.509 242.642 162.227 242.826 161.874 242.977C161.522 243.129 161.092 243.205 160.585 243.205ZM160.789 242C161.319 242 161.766 241.896 162.13 241.688C162.497 241.479 162.774 241.21 162.96 240.881C163.149 240.551 163.244 240.205 163.244 239.841V238.614C163.187 238.682 163.062 238.744 162.869 238.801C162.679 238.854 162.46 238.902 162.21 238.943C161.963 238.981 161.723 239.015 161.488 239.045C161.257 239.072 161.069 239.095 160.925 239.114C160.577 239.159 160.251 239.233 159.948 239.335C159.649 239.434 159.406 239.583 159.221 239.784C159.039 239.981 158.948 240.25 158.948 240.591C158.948 241.057 159.121 241.409 159.465 241.648C159.814 241.883 160.255 242 160.789 242ZM173.856 234.273L170.629 243H169.265L166.038 234.273H167.492L169.901 241.227H169.992L172.401 234.273H173.856ZM177.928 243.205C177.375 243.205 176.873 243.1 176.423 242.892C175.972 242.68 175.614 242.375 175.349 241.977C175.084 241.576 174.951 241.091 174.951 240.523C174.951 240.023 175.049 239.617 175.246 239.307C175.443 238.992 175.707 238.746 176.036 238.568C176.366 238.39 176.729 238.258 177.127 238.17C177.529 238.08 177.932 238.008 178.337 237.955C178.868 237.886 179.298 237.835 179.627 237.801C179.96 237.763 180.203 237.701 180.354 237.614C180.51 237.527 180.587 237.375 180.587 237.159V237.114C180.587 236.553 180.434 236.117 180.127 235.807C179.824 235.496 179.364 235.341 178.746 235.341C178.106 235.341 177.604 235.481 177.241 235.761C176.877 236.042 176.621 236.341 176.474 236.659L175.201 236.205C175.428 235.674 175.731 235.261 176.11 234.966C176.493 234.667 176.909 234.458 177.36 234.341C177.815 234.22 178.262 234.159 178.701 234.159C178.981 234.159 179.303 234.193 179.667 234.261C180.034 234.326 180.388 234.46 180.729 234.665C181.074 234.869 181.36 235.178 181.587 235.591C181.815 236.004 181.928 236.557 181.928 237.25V243H180.587V241.818H180.519C180.428 242.008 180.277 242.21 180.065 242.426C179.853 242.642 179.57 242.826 179.218 242.977C178.866 243.129 178.436 243.205 177.928 243.205ZM178.133 242C178.663 242 179.11 241.896 179.474 241.688C179.841 241.479 180.118 241.21 180.303 240.881C180.493 240.551 180.587 240.205 180.587 239.841V238.614C180.531 238.682 180.406 238.744 180.212 238.801C180.023 238.854 179.803 238.902 179.553 238.943C179.307 238.981 179.067 239.015 178.832 239.045C178.601 239.072 178.413 239.095 178.269 239.114C177.921 239.159 177.595 239.233 177.292 239.335C176.993 239.434 176.75 239.583 176.565 239.784C176.383 239.981 176.292 240.25 176.292 240.591C176.292 241.057 176.464 241.409 176.809 241.648C177.157 241.883 177.599 242 178.133 242ZM184.376 243V234.273H185.717V243H184.376ZM185.058 232.818C184.796 232.818 184.571 232.729 184.381 232.551C184.196 232.373 184.103 232.159 184.103 231.909C184.103 231.659 184.196 231.445 184.381 231.267C184.571 231.089 184.796 231 185.058 231C185.319 231 185.542 231.089 185.728 231.267C185.917 231.445 186.012 231.659 186.012 231.909C186.012 232.159 185.917 232.373 185.728 232.551C185.542 232.729 185.319 232.818 185.058 232.818ZM189.513 231.364V243H188.173V231.364H189.513ZM194.538 243.205C193.985 243.205 193.483 243.1 193.032 242.892C192.581 242.68 192.223 242.375 191.958 241.977C191.693 241.576 191.56 241.091 191.56 240.523C191.56 240.023 191.659 239.617 191.856 239.307C192.053 238.992 192.316 238.746 192.646 238.568C192.975 238.39 193.339 238.258 193.737 238.17C194.138 238.08 194.541 238.008 194.947 237.955C195.477 237.886 195.907 237.835 196.237 237.801C196.57 237.763 196.812 237.701 196.964 237.614C197.119 237.527 197.197 237.375 197.197 237.159V237.114C197.197 236.553 197.043 236.117 196.737 235.807C196.433 235.496 195.973 235.341 195.356 235.341C194.716 235.341 194.214 235.481 193.85 235.761C193.487 236.042 193.231 236.341 193.083 236.659L191.81 236.205C192.038 235.674 192.341 235.261 192.719 234.966C193.102 234.667 193.519 234.458 193.969 234.341C194.424 234.22 194.871 234.159 195.31 234.159C195.591 234.159 195.913 234.193 196.276 234.261C196.644 234.326 196.998 234.46 197.339 234.665C197.683 234.869 197.969 235.178 198.197 235.591C198.424 236.004 198.538 236.557 198.538 237.25V243H197.197V241.818H197.129C197.038 242.008 196.886 242.21 196.674 242.426C196.462 242.642 196.18 242.826 195.827 242.977C195.475 243.129 195.045 243.205 194.538 243.205ZM194.742 242C195.272 242 195.719 241.896 196.083 241.688C196.451 241.479 196.727 241.21 196.913 240.881C197.102 240.551 197.197 240.205 197.197 239.841V238.614C197.14 238.682 197.015 238.744 196.822 238.801C196.632 238.854 196.413 238.902 196.163 238.943C195.916 238.981 195.676 239.015 195.441 239.045C195.21 239.072 195.022 239.095 194.879 239.114C194.53 239.159 194.204 239.233 193.901 239.335C193.602 239.434 193.36 239.583 193.174 239.784C192.992 239.981 192.901 240.25 192.901 240.591C192.901 241.057 193.074 241.409 193.418 241.648C193.767 241.883 194.208 242 194.742 242ZM201.167 243V231.364H202.508V235.659H202.621C202.72 235.508 202.856 235.314 203.031 235.08C203.209 234.841 203.462 234.629 203.792 234.443C204.125 234.254 204.576 234.159 205.144 234.159C205.879 234.159 206.527 234.343 207.087 234.71C207.648 235.078 208.085 235.598 208.4 236.273C208.714 236.947 208.871 237.742 208.871 238.659C208.871 239.583 208.714 240.384 208.4 241.062C208.085 241.737 207.65 242.259 207.093 242.631C206.536 242.998 205.894 243.182 205.167 243.182C204.606 243.182 204.157 243.089 203.82 242.903C203.483 242.714 203.224 242.5 203.042 242.261C202.86 242.019 202.72 241.818 202.621 241.659H202.462V243H201.167ZM202.485 238.636C202.485 239.295 202.582 239.877 202.775 240.381C202.968 240.881 203.25 241.273 203.621 241.557C203.993 241.837 204.447 241.977 204.985 241.977C205.546 241.977 206.013 241.83 206.388 241.534C206.767 241.235 207.051 240.833 207.241 240.33C207.434 239.822 207.531 239.258 207.531 238.636C207.531 238.023 207.436 237.47 207.246 236.977C207.061 236.481 206.779 236.089 206.4 235.801C206.025 235.509 205.553 235.364 204.985 235.364C204.44 235.364 203.981 235.502 203.61 235.778C203.239 236.051 202.959 236.434 202.769 236.926C202.58 237.415 202.485 237.985 202.485 238.636ZM212.263 231.364V243H210.923V231.364H212.263ZM218.379 243.182C217.538 243.182 216.812 242.996 216.202 242.625C215.596 242.25 215.129 241.727 214.799 241.057C214.473 240.383 214.31 239.598 214.31 238.705C214.31 237.811 214.473 237.023 214.799 236.341C215.129 235.655 215.587 235.121 216.174 234.739C216.765 234.352 217.454 234.159 218.242 234.159C218.697 234.159 219.146 234.235 219.589 234.386C220.032 234.538 220.435 234.784 220.799 235.125C221.163 235.462 221.452 235.909 221.668 236.466C221.884 237.023 221.992 237.708 221.992 238.523V239.091H215.265V237.932H220.629C220.629 237.439 220.53 237 220.333 236.614C220.14 236.227 219.863 235.922 219.504 235.699C219.147 235.475 218.727 235.364 218.242 235.364C217.708 235.364 217.246 235.496 216.856 235.761C216.469 236.023 216.172 236.364 215.964 236.784C215.755 237.205 215.651 237.655 215.651 238.136V238.909C215.651 239.568 215.765 240.127 215.992 240.585C216.223 241.04 216.543 241.386 216.952 241.625C217.362 241.86 217.837 241.977 218.379 241.977C218.731 241.977 219.049 241.928 219.333 241.83C219.621 241.727 219.869 241.576 220.077 241.375C220.286 241.17 220.447 240.917 220.56 240.614L221.856 240.977C221.719 241.417 221.49 241.803 221.168 242.136C220.846 242.466 220.449 242.723 219.975 242.909C219.502 243.091 218.969 243.182 218.379 243.182Z" fill="white"/>
</svg>
